<?xml version="1.0" encoding="utf-8"?>
<!-- Generator: Adobe Illustrator 26.0.1, SVG Export Plug-In . SVG Version: 6.00 Build 0)  -->
<svg version="1.1" id="Layer_1" xmlns="http://www.w3.org/2000/svg" xmlns:xlink="http://www.w3.org/1999/xlink" x="0px" y="0px"
	 viewBox="0 0 404.5 131.9" style="enable-background:new 0 0 404.5 131.9;" xml:space="preserve">
<style type="text/css">
	.st0{fill:#2CD5C4;}
	.st1{fill:#F0B323;}
	
		.st2{clip-path:url(#SVGID_00000119097853054903074480000013621932550726184587_);fill:url(#SVGID_00000008120418563903849600000015662244707069951157_);}
	.st3{fill:#373A36;}
</style>
<path class="st0" d="M93.2,19.5L91.7,22c9.6,6.1,15.9,16.9,15.9,29.2c0,19.1-15.4,34.6-34.3,34.6c-6,0-11.6-1.6-16.6-4.3L55.2,84
	c5.4,3,11.5,4.7,18.1,4.7c20.5,0,37.3-16.9,37.3-37.6C110.5,37.8,103.6,26.1,93.2,19.5"/>
<path class="st0" d="M88.2,28l-1.5,2.6c6.7,4.4,11.1,12,11.1,20.7c0,13.6-11,24.7-24.5,24.7c-4.2,0-8.1-1.1-11.6-2.9l-1.5,2.6
	c3.9,2.1,8.3,3.3,13.1,3.3c15.1,0,27.5-12.4,27.5-27.7C100.7,41.5,95.7,32.9,88.2,28"/>
<path class="st1" d="M87.4,51.2c0,7.8-6.3,14.2-14.1,14.2c-2.2,0-4.3-0.5-6.2-1.5l-1.5,2.6c2.3,1.2,4.9,1.9,7.7,1.9
	c9.4,0,17-7.7,17-17.2c0-5.9-3-11.1-7.4-14.2l-1.5,2.6C85,42.1,87.4,46.4,87.4,51.2"/>
<g>
	<defs>
		<path id="SVGID_1_" d="M49.7,79.6l-1.1-1.3l2.5,1.9L49.7,79.6z M47.7,76.9l2.9,0.6l1.6,3L47.7,76.9z M45.8,76.2l0.5,0.4l0.7,0.8
			C46.6,77,46.2,76.6,45.8,76.2 M44.1,74.3l-0.6-1l1.3,1.5L44.1,74.3z M46.8,76.1l-1.3-3.4l4.3,4L46.8,76.1z M50,72.5l5.4,4
			l-4.3,0.4L50,72.5z M45.6,71.9l3.6,0.1l1,4.2L45.6,71.9z M50.3,71.9l4.5-0.6l1,4.7L50.3,71.9z M42.5,71.1l2.1,0.7l1.1,3.1
			L42.5,71.1z M41.9,70.3l-1-3.7L44,71L41.9,70.3z M45.1,71.3l-0.4-4.8l4.2,4.9L45.1,71.3z M50.2,66l4.3,4.7l-4.6,0.6L50.2,66z
			 M44.9,65.8l4.7-0.2L49.2,71L44.9,65.8z M40.8,65.5l3.2,0.4l0.4,4.7L40.8,65.5z M50.5,65.5l5.1-0.7l-0.8,5.5L50.5,65.5z
			 M38.6,64.7l1.3,0.6l0.8,3L38.6,64.7z M38.2,63.8L37.6,60l2,4.5L38.2,63.8z M40.4,64.8l-0.1-5.5l3.3,5.9L40.4,64.8z M45.4,59l4,6
			l-4.7,0.2L45.4,59z M51.6,58.6l3.9,5.6l-5.2,0.7L51.6,58.6z M40.6,58.5l4.2,0l-0.7,6.1L40.6,58.5z M45.7,58.5l5.3-0.3l-1.3,6.3
			L45.7,58.5z M52,58.2l6.7,0.2L56,63.8L52,58.2z M37.4,58.1l2.4,0.3l0,5.2L37.4,58.1z M36.2,57.7l0.4,0.2L37,60L36.2,57.7z
			 M36,56.9l-0.1-2.6l0.6,2.9L36,56.9z M37.3,57.5l0.5-5.5l1.9,5.8L37.3,57.5z M40.5,57.8l1.4-6.4l2.9,6.4L40.5,57.8z M47.5,51.3
			l3.4,6.3l-5.3,0.3L47.5,51.3z M51.9,57.6l2.8-6.4l3.9,6.6L51.9,57.6z M35.9,50.8l1.4,0l-0.5,4.8L35.9,50.8z M38,50.8l3.3,0L40,57
			L38,50.8z M42.2,50.8l4.8,0l-1.9,6.5L42.2,50.8z M47.9,50.8l6.2,0l-2.8,6.4L47.9,50.8z M55.2,50.8l7.7,0l-3.7,6.7L55.2,50.8z
			 M36.9,45.8l0.4,4.5l-1.4,0L36.9,45.8z M39.9,44.5l1.4,5.7l-3.3,0L39.9,44.5z M44.7,44.2l2.3,6.1l-4.8,0L44.7,44.2z M36.1,43.9
			l0.5,0.1L36,47L36.1,43.9z M37.3,44l2.2-0.3l-1.8,5.3L37.3,44z M40.4,43.7l3.9-0.1l-2.4,5.9L40.4,43.7z M50.9,43.4l3.2,6.8l-6.3,0
			L50.9,43.4z M45.1,43.6l5.3-0.6l-3,6.7L45.1,43.6z M59.1,43l3.7,7.2l-7.7,0L59.1,43z M51.4,43l7.2-0.3l-4,7.2L51.4,43z M59.7,42.6
			l8.1,0.1l-4.4,7.1L59.7,42.6z M36.2,43.3l1-2.9l-0.5,3L36.2,43.3z M39.5,38.9l0.2,4.2l-2.2,0.3L39.5,38.9z M43.3,38.1l1.1,5
			l-3.8,0L43.3,38.1z M40,37.9l2.8-0.3l-2.6,4.7L40,37.9z M38.3,37.4l1,0.4l-1.7,3.7L38.3,37.4z M48.5,36.6l2,5.8L45.2,43L48.5,36.6
			z M43.7,37.4l4.2-1.1l-3.2,6.2L43.7,37.4z M55.7,35.5l3,6.6l-7.2,0.3L55.7,35.5z M49,36.1l6.2-0.8L51,42L49,36.1z M59.7,42
			l4.7-6.8l3.5,6.9L59.7,42z M64.9,34.9l7.8,0.5l-4.3,6.4L64.9,34.9z M56.2,35.1l7.6-0.2l-4.6,6.8L56.2,35.1z M38.6,36.8l2-3.3
			l-1.1,3.7L38.6,36.8z M42.9,33.4l0.1,3.5l-2.7,0.3L42.9,33.4z M41.7,31.9l1.1,0.7l-2.2,3.3L41.7,31.9z M40.8,31.4l0.3,0.2L40,33.3
			L40.8,31.4z M47.3,31.4l0.9,4.2l-4.2,1.1L47.3,31.4z M43.5,32.7l3.2-1.5l-3.1,5L43.5,32.7z M53.5,29.6l1.9,5l-6.1,0.8L53.5,29.6z
			 M47.8,30.8l5-1.3l-4.1,5.6L47.8,30.8z M41.1,30.9l1.4-1.6L41.4,31L41.1,30.9z M65,34.3l4.5-5.4l3.2,5.9L65,34.3z M70.1,28.8
			l6.8,1l-3.6,4.8L70.1,28.8z M61.1,28.7l2.8,5.6l-7.5,0.2L61.1,28.7z M42,31.4l3-2.8l-1.9,3.5L42,31.4z M54,29.2l6.5-0.7l-4.6,5.7
			L54,29.2z M61.7,28.5l7.2,0.2l-4.4,5.4L61.7,28.5z M46.1,27.8l1,2.6l-3.2,1.5L46.1,27.8z M44.9,26.4l0.8,0.7l-2.8,2.6L44.9,26.4z
			 M46.6,27.3l4.1-1.8l-3,4.5L46.6,27.3z M51.4,25.3l1.7,3.4L48.2,30L51.4,25.3z M70.3,28.2l5.1-4l1.7,5L70.3,28.2z M76,24.2
			l6.2,1.7l-4.6,3.2L76,24.2z M58.6,23.6l2.2,4.3l-6.4,0.7L58.6,23.6z M51.9,24.9l5.9-1.4l-4.2,4.8L51.9,24.9z M45.4,26l3.4-2.5
			l-2.6,3.2L45.4,26z M61.9,27.9l5-4.7l2.1,4.9L61.9,27.9z M67.5,23.1l7.2,0.9l-5.1,4L67.5,23.1z M59.1,23.3l7.1-0.3l-5,4.6
			L59.1,23.3z M50.4,22.5l0.7,2.1l-3.9,1.7L50.4,22.5z M49.7,21.4l0.3,0.4l-2.4,1.8L49.7,21.4z M76.3,23.6l4.6-2.7l1.5,4.4
			L76.3,23.6z M50.8,22l4.7-1.8l-4,4L50.8,22z M56.7,19.9l1.5,2.9l-5.7,1.3L56.7,19.9z M50.2,21l2.7-1.5l-2.4,1.9L50.2,21z
			 M67.9,22.5l5.2-3.4l1.9,4.3L67.9,22.5z M73.7,19l6.5,1.6l-4.6,2.7L73.7,19z M57.2,19.6l6.4-1l-4.9,3.9L57.2,19.6z M64.6,18.6
			l1.9,3.8l-7,0.3L64.6,18.6z M65.2,18.5l7.1,0.4l-5.1,3.4L65.2,18.5z M55.8,18l0.6,1.2l-4.2,1.6L55.8,18z M79.5,16.9l6,2.2l-4.3,1
			L79.5,16.9z M74.2,18.5l4.5-1.8l1.8,3.3L74.2,18.5z M86.5,16.7l1.7,0.4l1.2,1L86.5,16.7z M56.3,17.7l4.7-1.3L56.9,19L56.3,17.7z
			 M80.1,16.5l3.6-0.4l1.9,2.5L80.1,16.5z M62.8,16l1.4,2l-6,0.9L62.8,16z M71.6,15.5l6.1,1l-4.4,1.7L71.6,15.5z M65.9,17.9l4.9-2.4
			l1.8,2.8L65.9,17.9z M63.5,15.8l6-0.3l-4.7,2.3L63.5,15.8z M84,15.5l-0.5-0.3c0.5,0.2,1,0.3,1.5,0.5L84,15.5z M61.7,15.1l0.5,0.3
			l-2.8,0.8L61.7,15.1z M62.6,14.9l2.4-0.4l-2,0.7L62.6,14.9z M77.4,14.5l4.8,1.1L79,16L77.4,14.5z M79.7,14.4l1.2,0.1l0.7,0.4
			L79.7,14.4z M72.6,15.1l3.7-0.8l1.6,1.6L72.6,15.1z M69.9,13.9l4.2,0.2L71,14.8L69.9,13.9z M68.9,13.9l1.2,0.9l-4.9,0.3L68.9,13.9
			z M40.4,30.8c-10.8,17.5-5.4,40.6,12,51.5l0.3-0.5c-0.2-0.1-0.4-0.3-0.7-0.4l0.7,0.3l0.5-0.8L51.7,78l2.3,1.4l0.3-0.5l-2.5-1.6
			l3.6-0.3l0.9-1.5l-0.8-4l2.3,1.4l0.3-0.5l-2.3-1.4l3.7-0.9l0.4-0.7l-4.5,1.1l0.8-5.5l3.7,4.3l0.3-0.6l-3.6-4.1l5.9,0.1l0.4-0.6
			l-6.5-0.1l2.7-5.4l3.9,5.4l0.3-0.6l-3.6-5.2l6.7-0.1l0.4-0.6l-7.2,0.1l3.7-6.7l3.6,6.3l0.4-0.6l-3.5-6l7,0l0.4-0.6l-7.3,0l4.4-7.1
			l3.3,6.6L72,49l-3.1-6.2l6.6,0.4l0.3-0.6l-6.9-0.4l4.3-6.3l3,6.1l0.4-0.6l-2.8-5.6l5.6,0.8l0.3-0.6L73.8,35l3.6-4.8l2.7,5.1
			l0.4-0.6l-2.4-4.5l4.4,1.1l0.3-0.5l-4.6-1.2l4.5-3.2l0.8,3.3l0.4-0.8l-0.5-2.4l1.4,0.9l0.3-0.5l-1.4-0.9l2.3-0.6l0.4-0.7l-3.3,0.9
			l-1.5-4.3l5.2,2.6l0.3-0.5L82,20.6l4.4-1l1.2,3l0.4-0.7L87.2,20l1.4,0.9l0.3-0.5l-1.2-0.7l1.6,0.1l0.3-0.6l-2.9-0.1l-1.8-2.3
			l4.8,2.3l0.8-1.3c-5.7-3.1-11.9-4.7-18.1-4.7C59.8,12.9,47.5,19.2,40.4,30.8"/>
	</defs>
	<clipPath id="SVGID_00000073679294034697229160000014892370262837341345_">
		<use xlink:href="#SVGID_1_"  style="overflow:visible;"/>
	</clipPath>
	
		<radialGradient id="SVGID_00000103224162797356760670000001525440414957000893_" cx="-193.8145" cy="368.2112" r="1" gradientTransform="matrix(31.4543 0 0 -31.4543 6158.9546 11629.4092)" gradientUnits="userSpaceOnUse">
		<stop  offset="0" style="stop-color:#FCF0D3"/>
		<stop  offset="0.1215" style="stop-color:#FBEBC6"/>
		<stop  offset="0.3472" style="stop-color:#F9DFA3"/>
		<stop  offset="0.6525" style="stop-color:#F5CC6B"/>
		<stop  offset="1" style="stop-color:#F0B323"/>
	</radialGradient>
	
		<rect x="29.6" y="12.9" style="clip-path:url(#SVGID_00000073679294034697229160000014892370262837341345_);fill:url(#SVGID_00000103224162797356760670000001525440414957000893_);" width="60.9" height="69.4"/>
</g>
<polygon class="st1" points="185.9,35 199.9,35 200.6,32.3 191.2,32.3 186.6,32.3 "/>
<g>
	<path class="st1" d="M171.3,32.3h10l-0.7,2.7h-12.4V17.6h13l-0.7,2.8h-9.2v4.5h10l-0.7,2.7h-9.3V32.3z M142.5,30.3
		c0,3.1-2.6,4.8-6.5,4.8H128V17.6h7.8c3.5,0,5.7,1.7,5.7,4.5c0,2.1-1.2,3.2-2.5,3.9C141.1,26.7,142.5,27.9,142.5,30.3 M131,25h5.8
		l1.1-0.6l0.6-1.1V22l-0.6-1.1l-1.1-0.6H131V25z M139.5,29.3l-0.6-1.1l-1.1-0.6H131v4.8h6.7l1.1-0.6l0.6-1.1V29.3z"/>
	<path class="st1" d="M158.1,28.5c2.6-0.8,4-2.7,4-5.3v0c0-1.5-0.5-2.8-1.5-3.8c-1.2-1.1-2.9-1.8-5.1-1.8h-7.8V35h3.3v-6h3.6l4.2,6
		h0h3.9L158.1,28.5z M156.7,25.6h-5.6v-5.4h5.6l1.2,0.7l0.7,1.2v1.4l-0.7,1.2L156.7,25.6z"/>
	<path class="st1" d="M234.6,28.5c2.6-0.8,4-2.7,4-5.3v0c0-1.5-0.5-2.8-1.5-3.8c-1.2-1.1-2.9-1.8-5.1-1.8h-7.8V35h3.3v-6h3.6l4.2,6
		h0h3.9L234.6,28.5z M233.2,25.6h-5.6v-5.4h5.6l1.2,0.7l0.7,1.2v1.4l-0.7,1.2L233.2,25.6z"/>
	<polygon class="st1" points="187.3,17.6 186.6,20.4 200,20.4 200.7,17.6 	"/>
	<polygon class="st1" points="219.7,17.6 205.7,17.6 205,20.4 210.8,20.4 210.8,35 213.8,35 213.8,20.4 219,20.4 	"/>
	<rect x="244.3" y="17.6" class="st1" width="3.1" height="17.4"/>
	<polygon class="st1" points="191.5,30.9 198.9,21.8 195.1,21.8 187.7,30.9 	"/>
</g>
<g>
	<path class="st3" d="M133,42.4h1.2l5,11.1h-1.3l-1.3-2.9h-6l-1.3,2.9H128L133,42.4z M136.1,49.5l-2.5-5.6l-2.5,5.6H136.1z"/>
	<polygon class="st3" points="142.3,42.5 150.3,42.5 150.3,43.6 143.6,43.6 143.6,47.4 149.6,47.4 149.6,48.5 143.6,48.5 
		143.6,52.4 150.4,52.4 150.4,53.5 142.3,53.5 	"/>
	<path class="st3" d="M153.9,42.5h4.7c1.4,0,2.4,0.4,3.1,1.1c0.5,0.5,0.9,1.3,0.9,2.2v0c0,1.8-1.3,2.9-3,3.2l3.4,4.5h-1.5l-3.2-4.3
		h-3.1v4.3h-1.2V42.5z M158.5,48.1c1.7,0,2.8-0.8,2.8-2.3v0c0-1.4-1-2.2-2.8-2.2h-3.4v4.5H158.5z"/>
	<path class="st3" d="M165.7,48L165.7,48c0-3.1,2.3-5.7,5.6-5.7s5.6,2.6,5.6,5.6v0c0,3-2.3,5.7-5.6,5.7S165.7,51.1,165.7,48
		 M175.7,48L175.7,48c0-2.5-1.8-4.6-4.3-4.6c-2.5,0-4.3,2-4.3,4.5v0c0,2.5,1.8,4.5,4.3,4.5S175.7,50.5,175.7,48"/>
	<path class="st3" d="M179.8,51.9l0.8-0.9c1.1,1,2.3,1.6,3.8,1.6c1.5,0,2.5-0.8,2.5-1.9v0c0-1-0.6-1.6-2.9-2.1
		c-2.5-0.5-3.7-1.4-3.7-3.2v0c0-1.7,1.5-3,3.6-3c1.6,0,2.8,0.5,3.9,1.4l-0.7,1c-1-0.8-2-1.2-3.2-1.2c-1.4,0-2.3,0.8-2.3,1.8v0
		c0,1,0.6,1.6,3,2.1c2.5,0.5,3.6,1.4,3.6,3.1v0c0,1.9-1.6,3.1-3.8,3.1C182.5,53.6,181.1,53.1,179.8,51.9"/>
	<path class="st3" d="M191.5,42.5h4.1c2.5,0,4.1,1.3,4.1,3.5v0c0,2.4-2,3.6-4.3,3.6h-2.7v3.9h-1.2V42.5z M195.5,48.5
		c1.8,0,3-1,3-2.4v0c0-1.6-1.2-2.4-3-2.4h-2.8v4.8H195.5z"/>
	<polygon class="st3" points="203,42.5 204.3,42.5 204.3,47.4 210.6,47.4 210.6,42.5 211.9,42.5 211.9,53.5 210.6,53.5 210.6,48.5 
		204.3,48.5 204.3,53.5 203,53.5 	"/>
	<polygon class="st3" points="216,42.5 223.9,42.5 223.9,43.6 217.2,43.6 217.2,47.4 223.2,47.4 223.2,48.5 217.2,48.5 217.2,52.4 
		224,52.4 224,53.5 216,53.5 	"/>
	<path class="st3" d="M227.5,42.5h4.7c1.4,0,2.4,0.4,3.1,1.1c0.5,0.5,0.9,1.3,0.9,2.2v0c0,1.8-1.3,2.9-3,3.2l3.4,4.5h-1.5l-3.2-4.3
		h-3.2v4.3h-1.2V42.5z M232.1,48.1c1.7,0,2.8-0.8,2.8-2.3v0c0-1.4-1-2.2-2.8-2.2h-3.4v4.5H232.1z"/>
	<polygon class="st3" points="239.9,42.5 247.8,42.5 247.8,43.6 241.1,43.6 241.1,47.4 247.1,47.4 247.1,48.5 241.1,48.5 
		241.1,52.4 247.9,52.4 247.9,53.5 239.9,53.5 	"/>
	<g>
		<g>
			<path class="st3" d="M250.7,44.9L250.7,44.9c0-2,1.6-3.7,3.7-3.7c2.1,0,3.7,1.7,3.7,3.7v0c0,2-1.6,3.7-3.7,3.7
				C252.3,48.5,250.7,46.9,250.7,44.9z M257.6,44.9L257.6,44.9c0-1.8-1.4-3.3-3.2-3.3c-1.8,0-3.2,1.5-3.2,3.3v0
				c0,1.8,1.4,3.3,3.2,3.3C256.2,48.1,257.6,46.6,257.6,44.9z M252.9,42.9h1.7c0.8,0,1.4,0.4,1.4,1.2c0,0.6-0.4,1-0.9,1.1l1,1.4
				h-0.9l-0.9-1.3h-0.8v1.3h-0.7V42.9z M254.5,44.8c0.5,0,0.8-0.3,0.8-0.6c0-0.4-0.3-0.6-0.8-0.6h-0.9v1.2H254.5z"/>
		</g>
	</g>
</g>
<path class="st3" d="M127.5,71.1c0-3,1.4-5.4,4-7L132,65c-2.2,1.6-3.4,3.6-3.4,6.2c0,2.6,1.2,4.6,3.4,6.2l-0.5,0.8
	C129,76.5,127.5,74.1,127.5,71.1"/>
<path class="st3" d="M134.5,74.2v1.6h-1.1V63.9h1.1v5.2c0.6-1,1.5-1.9,2.9-1.9c1.8,0,3.6,1.6,3.6,4.4v0c0,2.8-1.8,4.4-3.6,4.4
	C136,76,135.1,75.1,134.5,74.2 M139.8,71.6L139.8,71.6c0-2-1.2-3.3-2.6-3.3c-1.4,0-2.7,1.3-2.7,3.3v0c0,2,1.3,3.3,2.7,3.3
	C138.6,74.9,139.8,73.7,139.8,71.6"/>
<path class="st3" d="M142.2,72.6v-5.3h1.1v4.9c0,1.6,0.8,2.6,2.1,2.6c1.3,0,2.3-1.1,2.3-2.7v-4.8h1.1v8.5h-1.1v-1.5
	c-0.5,0.9-1.3,1.7-2.6,1.7C143.3,76,142.2,74.6,142.2,72.6"/>
<path class="st3" d="M150.1,71.6L150.1,71.6c0-2.8,1.8-4.4,3.6-4.4c1.4,0,2.3,0.9,2.9,1.8v-5.1h1.1v11.9h-1.1v-1.7
	c-0.6,1-1.5,1.9-2.9,1.9C151.9,76,150.1,74.4,150.1,71.6 M156.6,71.6L156.6,71.6c0-2-1.3-3.3-2.7-3.3c-1.5,0-2.6,1.2-2.6,3.3v0
	c0,2,1.2,3.3,2.6,3.3C155.3,74.9,156.6,73.5,156.6,71.6"/>
<path class="st3" d="M159,71.6L159,71.6c0-2.5,1.5-4.4,3.6-4.4c2.2,0,3.5,2,3.5,4.5c0,0.2,0,0.3,0,0.4h-6c0.2,1.8,1.3,2.9,2.6,2.9
	c1,0,1.8-0.5,2.4-1.2l0.7,0.7c-0.8,0.9-1.7,1.6-3.1,1.6C160.7,76,159,74.2,159,71.6 M165,71.1c-0.1-1.5-0.9-2.9-2.4-2.9
	c-1.3,0-2.3,1.2-2.4,2.9H165z"/>
<path class="st3" d="M166.7,74.7l0.6-0.9c0.8,0.7,1.7,1.1,2.6,1.1c0.9,0,1.6-0.5,1.6-1.3v0c0-0.9-0.9-1.2-1.9-1.5
	c-1.2-0.4-2.5-0.8-2.5-2.4v0c0-1.5,1.1-2.4,2.6-2.4c0.9,0,1.9,0.4,2.7,0.9l-0.5,0.9c-0.7-0.5-1.5-0.8-2.2-0.8
	c-0.9,0-1.5,0.5-1.5,1.2v0c0,0.8,0.9,1.1,1.9,1.5c1.2,0.4,2.4,0.9,2.4,2.4v0c0,1.6-1.2,2.5-2.7,2.5C168.8,76,167.6,75.5,166.7,74.7"
	/>
<path class="st3" d="M173.4,71.6L173.4,71.6c0-2.4,1.7-4.4,3.9-4.4c2.3,0,3.9,2,3.9,4.4v0c0,2.4-1.7,4.4-3.9,4.4
	C175.1,76,173.4,74,173.4,71.6 M180.1,71.6L180.1,71.6c0-1.8-1.2-3.3-2.8-3.3c-1.6,0-2.8,1.5-2.8,3.3v0c0,1.8,1.2,3.3,2.8,3.3
	C179,74.9,180.1,73.4,180.1,71.6"/>
<path class="st3" d="M182.6,67.4h1.1v1.5c0.5-0.9,1.3-1.7,2.6-1.7c1.8,0,2.9,1.4,2.9,3.4v5.3H188v-4.9c0-1.6-0.8-2.6-2.1-2.6
	c-1.3,0-2.3,1.1-2.3,2.6v4.8h-1.1V67.4z"/>
<path class="st3" d="M190.8,64.1h1.3v1.4h-1.3V64.1z M190.9,67.4h1.1v8.5h-1.1V67.4z"/>
<path class="st3" d="M193.5,71.6L193.5,71.6c0-2.8,1.8-4.4,3.6-4.4c1.4,0,2.3,0.9,2.9,1.8v-5.1h1.1v11.9h-1.1v-1.7
	c-0.6,1-1.5,1.9-2.9,1.9C195.2,76,193.5,74.4,193.5,71.6 M200,71.6L200,71.6c0-2-1.3-3.3-2.7-3.3c-1.5,0-2.6,1.2-2.6,3.3v0
	c0,2,1.2,3.3,2.6,3.3C198.7,74.9,200,73.5,200,71.6"/>
<path class="st3" d="M202.4,71.6L202.4,71.6c0-2.5,1.5-4.4,3.6-4.4c2.2,0,3.5,2,3.5,4.5c0,0.2,0,0.3,0,0.4h-6
	c0.2,1.8,1.3,2.9,2.6,2.9c1,0,1.8-0.5,2.4-1.2l0.7,0.7c-0.8,0.9-1.7,1.6-3.1,1.6C204,76,202.4,74.2,202.4,71.6 M208.3,71.1
	c-0.1-1.5-0.9-2.9-2.4-2.9c-1.3,0-2.3,1.2-2.4,2.9H208.3z"/>
<polygon class="st3" points="215.7,65.6 213.8,66.3 213.5,65.2 216,64.3 216.8,64.3 216.8,75.8 215.7,75.8 "/>
<path class="st3" d="M219.7,74.9c-0.8-0.9-1.3-2.1-1.3-4.4v0c0-3.5,1.6-6.2,4.2-6.2c1.2,0,2.1,0.5,3,1.3l-0.7,1
	c-0.8-0.7-1.5-1.1-2.4-1.1c-2,0-3,2.3-3,4.9v0.2c0.7-1.1,1.6-1.8,2.9-1.8c1.9,0,3.5,1.4,3.5,3.5v0c0,2.2-1.6,3.8-3.7,3.8
	C221.3,76,220.4,75.6,219.7,74.9 M224.9,72.3L224.9,72.3c0-1.4-1-2.5-2.5-2.5c-1.5,0-2.5,1.2-2.5,2.5v0c0,1.5,1.1,2.6,2.6,2.6
	C223.9,74.9,224.9,73.7,224.9,72.3"/>
<path class="st3" d="M227.2,70.1L227.2,70.1c0-3.2,1.7-6,4.3-6c2.6,0,4.3,2.7,4.3,5.9v0c0,3.2-1.7,5.9-4.3,5.9
	C228.8,76,227.2,73.3,227.2,70.1 M234.6,70.1L234.6,70.1c0-2.5-1.2-4.8-3.1-4.8c-1.9,0-3.1,2.2-3.1,4.7v0c0,2.5,1.2,4.7,3.1,4.7
	C233.4,74.8,234.6,72.6,234.6,70.1"/>
<path class="st3" d="M240.8,67.4h1.1v1.4c0.5-0.8,1.2-1.6,2.4-1.6c1.2,0,2,0.7,2.4,1.7c0.5-0.9,1.3-1.7,2.6-1.7
	c1.7,0,2.8,1.3,2.8,3.4v5.2h-1.1v-4.9c0-1.6-0.7-2.6-2-2.6c-1.1,0-2.1,0.9-2.1,2.6v4.9H246v-5c0-1.6-0.7-2.5-1.9-2.5
	s-2.1,1.1-2.1,2.7v4.8h-1.1V67.4z"/>
<path class="st3" d="M253.5,71.6L253.5,71.6c0-2.4,1.7-4.4,3.9-4.4c1.4,0,2.3,0.7,3,1.5l-0.7,0.9c-0.6-0.7-1.3-1.3-2.3-1.3
	c-1.5,0-2.7,1.5-2.7,3.3v0c0,1.8,1.2,3.3,2.8,3.3c1,0,1.7-0.5,2.3-1.3l0.7,0.8c-0.8,0.9-1.7,1.6-3.1,1.6
	C255.1,76,253.5,74,253.5,71.6"/>
<path class="st3" d="M261.3,77.3l0.5-1c0.9,0.7,1.8,1.1,2.9,1.1c1.7,0,2.7-1,2.7-3v-1c-0.7,1-1.6,1.8-3,1.8c-1.8,0-3.5-1.5-3.5-4v0
	c0-2.5,1.7-4,3.5-4c1.4,0,2.3,0.8,2.9,1.7v-1.5h1.1v7c0,1.3-0.3,2.3-1,3c-0.7,0.8-1.7,1.1-2.9,1.1C263.5,78.5,262.3,78.1,261.3,77.3
	 M267.5,71.2L267.5,71.2c0-1.8-1.3-2.9-2.8-2.9c-1.4,0-2.6,1.1-2.6,2.8v0c0,1.7,1.2,2.9,2.6,2.9C266.1,74.1,267.5,72.9,267.5,71.2"
	/>
<path class="st3" d="M269.7,77.2c0.7-0.3,1-0.7,1-1.4h-0.5v-1.7h1.3v1.5c0,1.3-0.5,2-1.6,2.2L269.7,77.2z"/>
<path class="st3" d="M276.7,77.3l0.5-1c0.9,0.7,1.8,1.1,2.9,1.1c1.7,0,2.7-1,2.7-3v-1c-0.7,1-1.6,1.8-3,1.8c-1.8,0-3.5-1.5-3.5-4v0
	c0-2.5,1.7-4,3.5-4c1.4,0,2.3,0.8,2.9,1.7v-1.5h1.1v7c0,1.3-0.3,2.3-1,3c-0.7,0.8-1.7,1.1-2.9,1.1C278.9,78.5,277.7,78.1,276.7,77.3
	 M282.9,71.2L282.9,71.2c0-1.8-1.3-2.9-2.8-2.9c-1.4,0-2.6,1.1-2.6,2.8v0c0,1.7,1.2,2.9,2.6,2.9C281.5,74.1,282.9,72.9,282.9,71.2"
	/>
<rect x="285.8" y="63.9" class="st3" width="1.1" height="11.9"/>
<path class="st3" d="M294.4,67.4h1.2l-3.2,8.7c-0.6,1.8-1.4,2.4-2.5,2.4c-0.6,0-1.1-0.1-1.6-0.4l0.4-1c0.4,0.2,0.7,0.3,1.2,0.3
	c0.7,0,1.1-0.4,1.5-1.6l-3.4-8.4h1.2l2.7,7.1L294.4,67.4z"/>
<path class="st3" d="M295.8,71.6L295.8,71.6c0-2.4,1.7-4.4,3.9-4.4c1.4,0,2.3,0.7,3,1.5l-0.7,0.9c-0.6-0.7-1.3-1.3-2.3-1.3
	c-1.5,0-2.7,1.5-2.7,3.3v0c0,1.8,1.2,3.3,2.8,3.3c1,0,1.7-0.5,2.3-1.3l0.7,0.8c-0.8,0.9-1.7,1.6-3.1,1.6
	C297.4,76,295.8,74,295.8,71.6"/>
<path class="st3" d="M303.1,71.6L303.1,71.6c0-2.4,1.7-4.4,3.9-4.4c2.3,0,3.9,2,3.9,4.4v0c0,2.4-1.7,4.4-3.9,4.4
	C304.8,76,303.1,74,303.1,71.6 M309.8,71.6L309.8,71.6c0-1.8-1.2-3.3-2.8-3.3c-1.6,0-2.8,1.5-2.8,3.3v0c0,1.8,1.2,3.3,2.8,3.3
	C308.7,74.9,309.8,73.4,309.8,71.6"/>
<path class="st3" d="M312.3,67.4h1.1v1.7c0.6-1,1.5-1.9,2.9-1.9c1.8,0,3.6,1.6,3.6,4.4v0c0,2.8-1.8,4.4-3.6,4.4
	c-1.4,0-2.3-0.9-2.9-1.8v4.2h-1.1V67.4z M318.7,71.6L318.7,71.6c0-2-1.2-3.3-2.6-3.3c-1.4,0-2.7,1.3-2.7,3.3v0c0,2,1.3,3.3,2.7,3.3
	C317.5,74.9,318.7,73.7,318.7,71.6"/>
<path class="st3" d="M326.5,67.4h1.2l-3.2,8.7c-0.6,1.8-1.4,2.4-2.5,2.4c-0.6,0-1.1-0.1-1.6-0.4l0.4-1c0.4,0.2,0.7,0.3,1.2,0.3
	c0.7,0,1.1-0.4,1.5-1.6l-3.4-8.4h1.2l2.7,7.1L326.5,67.4z"/>
<path class="st3" d="M328.7,67.4h1.1v2.2c0.6-1.4,1.6-2.4,3.1-2.4v1.4h-0.1c-1.6,0-3,1.3-3,3.9v3.4h-1.1V67.4z"/>
<path class="st3" d="M333.9,67.4h1.1v2.2c0.6-1.4,1.6-2.4,3.1-2.4v1.4H338c-1.6,0-3,1.3-3,3.9v3.4h-1.1V67.4z"/>
<path class="st3" d="M338.3,71.6L338.3,71.6c0-2.4,1.7-4.4,3.9-4.4c2.3,0,3.9,2,3.9,4.4v0c0,2.4-1.7,4.4-3.9,4.4
	C339.9,76,338.3,74,338.3,71.6 M345,71.6L345,71.6c0-1.8-1.2-3.3-2.8-3.3c-1.6,0-2.8,1.5-2.8,3.3v0c0,1.8,1.2,3.3,2.8,3.3
	C343.8,74.9,345,73.4,345,71.6"/>
<rect x="347.5" y="63.9" class="st3" width="1.1" height="11.9"/>
<path class="st3" d="M349.9,73.4L349.9,73.4c0-1.8,1.3-2.8,3.2-2.8c1,0,1.6,0.1,2.3,0.4v-0.3c0-1.5-0.8-2.3-2.2-2.3
	c-0.9,0-1.6,0.3-2.3,0.6l-0.3-1c0.8-0.4,1.6-0.7,2.7-0.7c1.1,0,1.9,0.3,2.4,0.9c0.5,0.6,0.8,1.4,0.8,2.5v5.2h-1.1v-1.3
	c-0.5,0.8-1.4,1.5-2.7,1.5C351.3,76,349.9,75.1,349.9,73.4 M355.5,72.7v-0.8c-0.6-0.2-1.3-0.4-2.2-0.4c-1.4,0-2.2,0.7-2.2,1.8v0
	c0,1.1,0.9,1.7,1.9,1.7C354.3,75,355.5,74.1,355.5,72.7"/>
<path class="st3" d="M358.5,73.6v-5.1h-1v-1.1h1v-2.6h1.1v2.6h2.4v1.1h-2.4v4.9c0,1,0.5,1.4,1.3,1.4c0.4,0,0.7-0.1,1.1-0.3v1.1
	c-0.4,0.2-0.8,0.4-1.4,0.4C359.4,76,358.5,75.3,358.5,73.6"/>
<path class="st3" d="M362.6,71.6L362.6,71.6c0-2.5,1.5-4.4,3.6-4.4c2.2,0,3.5,2,3.5,4.5c0,0.2,0,0.3,0,0.4h-6
	c0.2,1.8,1.3,2.9,2.6,2.9c1,0,1.8-0.5,2.4-1.2l0.7,0.7c-0.8,0.9-1.7,1.6-3.1,1.6C364.3,76,362.6,74.2,362.6,71.6 M368.6,71.1
	c-0.1-1.5-0.9-2.9-2.4-2.9c-1.3,0-2.3,1.2-2.4,2.9H368.6z"/>
<path class="st3" d="M133.9,88.1v-0.2c-0.6,1.1-1.6,1.8-2.9,1.8c-2.1,0-3.6-1.5-3.6-3.6v0c0-2.2,1.5-3.9,3.7-3.9
	c1.2,0,2,0.4,2.7,1.2c0.8,0.9,1.3,2.1,1.3,4.4v0c0,3.6-1.7,6.2-4.2,6.2c-1.3,0-2.3-0.6-3.1-1.4l0.7-1c0.8,0.8,1.6,1.2,2.5,1.2
	C132.8,92.8,133.9,90.5,133.9,88.1 M133.7,85.9L133.7,85.9c0-1.5-1.1-2.6-2.6-2.6c-1.5,0-2.4,1.3-2.4,2.7v0c0,1.5,1,2.5,2.5,2.5
	C132.7,88.5,133.7,87.3,133.7,85.9"/>
<path class="st3" d="M140.1,85.4h1.1v1.4c0.5-0.8,1.2-1.6,2.4-1.6c1.2,0,2,0.7,2.4,1.7c0.5-0.9,1.3-1.7,2.7-1.7
	c1.7,0,2.8,1.3,2.8,3.4v5.2h-1.1v-4.9c0-1.6-0.7-2.6-2-2.6c-1.1,0-2.1,0.9-2.1,2.6v4.9h-1.1v-5c0-1.6-0.7-2.5-1.9-2.5
	s-2.1,1.1-2.1,2.7v4.8h-1.1V85.4z"/>
<path class="st3" d="M152.8,89.6L152.8,89.6c0-2.4,1.7-4.4,3.9-4.4c1.4,0,2.3,0.7,3,1.5l-0.7,0.9c-0.6-0.7-1.3-1.3-2.3-1.3
	c-1.5,0-2.7,1.5-2.7,3.3v0c0,1.8,1.2,3.3,2.8,3.3c1,0,1.7-0.5,2.3-1.3l0.7,0.8c-0.8,0.9-1.7,1.6-3.1,1.6
	C154.4,94,152.8,92,152.8,89.6"/>
<path class="st3" d="M160.6,95.3l0.5-1c0.9,0.7,1.8,1.1,2.9,1.1c1.7,0,2.7-1,2.7-3v-1c-0.7,1-1.6,1.8-3,1.8c-1.8,0-3.5-1.5-3.5-4v0
	c0-2.5,1.7-4,3.5-4c1.4,0,2.3,0.8,2.9,1.7v-1.5h1.1v7c0,1.3-0.3,2.3-1,3c-0.7,0.8-1.7,1.1-2.9,1.1C162.7,96.5,161.6,96.1,160.6,95.3
	 M166.7,89.2L166.7,89.2c0-1.8-1.3-2.9-2.8-2.9c-1.4,0-2.6,1.1-2.6,2.8v0c0,1.7,1.2,2.9,2.6,2.9C165.4,92.1,166.7,90.9,166.7,89.2"
	/>
<path class="st3" d="M172.7,91.4L172.7,91.4c0-1.8,1.3-2.8,3.2-2.8c1,0,1.6,0.1,2.3,0.4v-0.3c0-1.5-0.8-2.3-2.2-2.3
	c-0.9,0-1.6,0.3-2.3,0.6l-0.3-1c0.8-0.4,1.6-0.7,2.7-0.7c1.1,0,1.9,0.3,2.4,0.9c0.5,0.6,0.8,1.4,0.8,2.5v5.2h-1.1v-1.3
	c-0.5,0.8-1.4,1.5-2.7,1.5C174.1,94,172.7,93.1,172.7,91.4 M178.2,90.7v-0.8c-0.6-0.2-1.3-0.4-2.2-0.4c-1.4,0-2.2,0.7-2.2,1.8v0
	c0,1.1,0.9,1.7,1.9,1.7C177.1,93,178.2,92.1,178.2,90.7"/>
<path class="st3" d="M180.9,85.4h1.1v1.5c0.5-0.9,1.3-1.7,2.6-1.7c1.8,0,2.9,1.4,2.9,3.4v5.3h-1.1v-4.9c0-1.6-0.8-2.6-2.1-2.6
	c-1.3,0-2.3,1.1-2.3,2.6v4.8h-1.1V85.4z"/>
<path class="st3" d="M188.7,89.6L188.7,89.6c0-2.8,1.8-4.4,3.6-4.4c1.4,0,2.3,0.9,2.9,1.8v-5.1h1.1v11.9h-1.1v-1.7
	c-0.6,1-1.5,1.9-2.9,1.9C190.5,94,188.7,92.4,188.7,89.6 M195.2,89.6L195.2,89.6c0-2-1.3-3.3-2.7-3.3c-1.5,0-2.6,1.2-2.6,3.3v0
	c0,2,1.2,3.3,2.6,3.3C193.9,92.9,195.2,91.5,195.2,89.6"/>
<path class="st3" d="M202.2,86.5h-1v-1.1h1v-0.7c0-1,0.2-1.7,0.7-2.2c0.4-0.4,0.9-0.7,1.6-0.7c0.5,0,0.9,0.1,1.2,0.2v1.1
	c-0.4-0.1-0.7-0.2-1.1-0.2c-0.9,0-1.3,0.6-1.3,1.8v0.7h2.4v1.1h-2.4v7.3h-1.1V86.5z"/>
<path class="st3" d="M205.7,89.6L205.7,89.6c0-2.4,1.7-4.4,3.9-4.4c2.3,0,3.9,2,3.9,4.4v0c0,2.4-1.7,4.4-3.9,4.4
	C207.4,94,205.7,92,205.7,89.6 M212.4,89.6L212.4,89.6c0-1.8-1.2-3.3-2.8-3.3c-1.6,0-2.8,1.5-2.8,3.3v0c0,1.8,1.2,3.3,2.8,3.3
	C211.3,92.9,212.4,91.4,212.4,89.6"/>
<path class="st3" d="M214.9,85.4h1.1v2.2c0.6-1.4,1.6-2.4,3.1-2.4v1.4H219c-1.6,0-3,1.3-3,3.9v3.4h-1.1V85.4z"/>
<path class="st3" d="M220,85.4h1.1v1.4c0.5-0.8,1.2-1.6,2.4-1.6c1.2,0,2,0.7,2.4,1.7c0.5-0.9,1.3-1.7,2.7-1.7c1.7,0,2.8,1.3,2.8,3.4
	v5.2h-1.1v-4.9c0-1.6-0.7-2.6-2-2.6c-1.1,0-2.1,0.9-2.1,2.6v4.9h-1.1v-5c0-1.6-0.7-2.5-1.9-2.5s-2.1,1.1-2.1,2.7v4.8H220V85.4z"/>
<path class="st3" d="M232.7,89.6L232.7,89.6c0-2.4,1.7-4.4,3.9-4.4c2.3,0,3.9,2,3.9,4.4v0c0,2.4-1.7,4.4-3.9,4.4
	C234.3,94,232.7,92,232.7,89.6 M239.4,89.6L239.4,89.6c0-1.8-1.2-3.3-2.8-3.3c-1.6,0-2.8,1.5-2.8,3.3v0c0,1.8,1.2,3.3,2.8,3.3
	C238.2,92.9,239.4,91.4,239.4,89.6"/>
<path class="st3" d="M242.2,91.6v-5.1h-1v-1.1h1v-2.6h1.1v2.6h2.4v1.1h-2.4v4.9c0,1,0.5,1.4,1.3,1.4c0.4,0,0.7-0.1,1.1-0.3v1.1
	c-0.4,0.2-0.8,0.4-1.4,0.4C243.1,94,242.2,93.3,242.2,91.6"/>
<path class="st3" d="M246.3,89.6L246.3,89.6c0-2.5,1.5-4.4,3.6-4.4c2.2,0,3.5,2,3.5,4.5c0,0.2,0,0.3,0,0.4h-6
	c0.2,1.8,1.3,2.9,2.6,2.9c1,0,1.8-0.5,2.4-1.2l0.7,0.7c-0.8,0.9-1.7,1.6-3.1,1.6C248,94,246.3,92.2,246.3,89.6 M252.3,89.1
	c-0.1-1.5-0.9-2.9-2.4-2.9c-1.3,0-2.3,1.2-2.4,2.9H252.3z"/>
<path class="st3" d="M254.6,85.4h1.1v2.2c0.6-1.4,1.6-2.4,3.1-2.4v1.4h-0.1c-1.6,0-3,1.3-3,3.9v3.4h-1.1V85.4z"/>
<path class="st3" d="M259,89.6L259,89.6c0-2.4,1.7-4.4,3.9-4.4c2.3,0,3.9,2,3.9,4.4v0c0,2.4-1.7,4.4-3.9,4.4
	C260.7,94,259,92,259,89.6 M265.7,89.6L265.7,89.6c0-1.8-1.2-3.3-2.8-3.3c-1.6,0-2.8,1.5-2.8,3.3v0c0,1.8,1.2,3.3,2.8,3.3
	C264.6,92.9,265.7,91.4,265.7,89.6"/>
<rect x="268.3" y="81.9" class="st3" width="1.1" height="11.9"/>
<path class="st3" d="M275.3,86.5h-1v-1.1h1v-0.7c0-1,0.2-1.7,0.7-2.2c0.4-0.4,0.9-0.7,1.6-0.7c0.5,0,0.9,0.1,1.2,0.2v1.1
	c-0.4-0.1-0.7-0.2-1.1-0.2c-0.9,0-1.3,0.6-1.3,1.8v0.7h2.4v1.1h-2.4v7.3h-1.1V86.5z"/>
<path class="st3" d="M279.4,90.6v-5.3h1.1v4.9c0,1.6,0.8,2.6,2.1,2.6c1.3,0,2.3-1.1,2.3-2.7v-4.8h1.1v8.5h-1.1v-1.5
	c-0.5,0.9-1.3,1.7-2.6,1.7C280.4,94,279.4,92.6,279.4,90.6"/>
<path class="st3" d="M287.7,85.4h1.1v1.4c0.5-0.8,1.2-1.6,2.4-1.6c1.2,0,2,0.7,2.4,1.7c0.5-0.9,1.3-1.7,2.6-1.7
	c1.7,0,2.8,1.3,2.8,3.4v5.2H298v-4.9c0-1.6-0.7-2.6-2-2.6c-1.1,0-2.1,0.9-2.1,2.6v4.9h-1.1v-5c0-1.6-0.7-2.5-1.9-2.5
	s-2.1,1.1-2.1,2.7v4.8h-1.1V85.4z"/>
<path class="st3" d="M300.3,91.4L300.3,91.4c0-1.8,1.3-2.8,3.2-2.8c1,0,1.6,0.1,2.3,0.4v-0.3c0-1.5-0.8-2.3-2.2-2.3
	c-0.9,0-1.6,0.3-2.3,0.6l-0.3-1c0.8-0.4,1.6-0.7,2.7-0.7c1.1,0,1.9,0.3,2.4,0.9c0.5,0.6,0.8,1.4,0.8,2.5v5.2h-1.1v-1.3
	c-0.5,0.8-1.4,1.5-2.7,1.5C301.7,94,300.3,93.1,300.3,91.4 M305.8,90.7v-0.8c-0.6-0.2-1.3-0.4-2.2-0.4c-1.4,0-2.2,0.7-2.2,1.8v0
	c0,1.1,0.9,1.7,1.9,1.7C304.7,93,305.8,92.1,305.8,90.7"/>
<path class="st3" d="M308.5,85.4h1.1v2.2c0.6-1.4,1.6-2.4,3.1-2.4v1.4h-0.1c-1.6,0-3,1.3-3,3.9v3.4h-1.1V85.4z"/>
<path class="st3" d="M312.8,91.4L312.8,91.4c0-1.8,1.3-2.8,3.2-2.8c1,0,1.6,0.1,2.3,0.4v-0.3c0-1.5-0.8-2.3-2.2-2.3
	c-0.9,0-1.6,0.3-2.3,0.6l-0.3-1c0.8-0.4,1.6-0.7,2.7-0.7c1.1,0,1.9,0.3,2.4,0.9c0.5,0.6,0.8,1.4,0.8,2.5v5.2h-1.1v-1.3
	c-0.5,0.8-1.4,1.5-2.7,1.5C314.2,94,312.8,93.1,312.8,91.4 M318.3,90.7v-0.8c-0.6-0.2-1.3-0.4-2.2-0.4c-1.4,0-2.2,0.7-2.2,1.8v0
	c0,1.1,0.9,1.7,1.9,1.7C317.2,93,318.3,92.1,318.3,90.7"/>
<path class="st3" d="M321.4,91.6v-5.1h-1v-1.1h1v-2.6h1.1v2.6h2.4v1.1h-2.4v4.9c0,1,0.5,1.4,1.3,1.4c0.4,0,0.7-0.1,1.1-0.3v1.1
	c-0.4,0.2-0.8,0.4-1.4,0.4C322.3,94,321.4,93.3,321.4,91.6"/>
<path class="st3" d="M325.4,89.6L325.4,89.6c0-2.5,1.5-4.4,3.6-4.4c2.2,0,3.5,2,3.5,4.5c0,0.2,0,0.3,0,0.4h-6
	c0.2,1.8,1.3,2.9,2.6,2.9c1,0,1.8-0.5,2.4-1.2l0.7,0.7c-0.8,0.9-1.7,1.6-3.1,1.6C327.1,94,325.4,92.2,325.4,89.6 M331.4,89.1
	c-0.1-1.5-0.9-2.9-2.4-2.9c-1.3,0-2.3,1.2-2.4,2.9H331.4z"/>
<path class="st3" d="M133.1,109.1h-5.4l-0.3-0.9l5.8-7.9h1v7.7h1.6v1.1h-1.6v2.7h-1.1V109.1z M133.1,108v-5.9l-4.3,5.9H133.1z"/>
<rect x="137" y="110.1" class="st3" width="1.3" height="1.7"/>
<path class="st3" d="M139.5,108.7L139.5,108.7c0-1.4,0.9-2.4,2.1-2.8c-0.9-0.5-1.7-1.3-1.7-2.6v0c0-1.8,1.6-3,3.5-3
	c1.9,0,3.5,1.3,3.5,3v0c0,1.3-0.8,2.1-1.7,2.6c1.2,0.5,2.1,1.4,2.1,2.8v0c0,1.9-1.7,3.3-3.8,3.3
	C141.1,111.9,139.5,110.6,139.5,108.7 M145.9,108.7L145.9,108.7c0-1.3-1.2-2.2-2.7-2.2c-1.5,0-2.7,0.9-2.7,2.2v0
	c0,1.1,1,2.1,2.7,2.1C145,110.8,145.9,109.8,145.9,108.7 M145.6,103.3L145.6,103.3c0-1.2-1-2-2.3-2c-1.3,0-2.3,0.8-2.3,2v0
	c0,1.2,1,2.1,2.3,2.1C144.6,105.4,145.6,104.5,145.6,103.3"/>
<g>
	<path class="st3" d="M152.2,103.4h1.1v1.4c0.5-0.8,1.2-1.6,2.4-1.6c1.2,0,2,0.7,2.4,1.7c0.5-0.9,1.3-1.7,2.7-1.7
		c1.7,0,2.8,1.3,2.8,3.4v5.2h-1.1v-4.9c0-1.6-0.7-2.6-2-2.6c-1.1,0-2.1,0.9-2.1,2.6v4.9h-1.1v-5c0-1.6-0.7-2.5-1.9-2.5
		s-2.1,1.1-2.1,2.7v4.8h-1.1V103.4z"/>
	<path class="st3" d="M164.8,107.6L164.8,107.6c0-2.4,1.7-4.4,3.9-4.4c1.4,0,2.3,0.7,3,1.5l-0.7,0.9c-0.6-0.7-1.3-1.3-2.3-1.3
		c-1.5,0-2.7,1.5-2.7,3.3v0c0,1.8,1.2,3.3,2.8,3.3c1,0,1.7-0.5,2.3-1.3l0.7,0.8c-0.8,0.9-1.7,1.6-3.1,1.6
		C166.5,112,164.8,110,164.8,107.6"/>
	<path class="st3" d="M172.6,113.3l0.5-1c0.9,0.7,1.8,1.1,2.9,1.1c1.7,0,2.7-1,2.7-3v-1c-0.7,1-1.6,1.8-3,1.8c-1.8,0-3.5-1.5-3.5-4
		v0c0-2.5,1.7-4,3.5-4c1.4,0,2.3,0.8,2.9,1.7v-1.5h1.1v7c0,1.3-0.3,2.3-1,3c-0.7,0.8-1.7,1.1-2.9,1.1
		C174.8,114.5,173.6,114.1,172.6,113.3 M178.8,107.2L178.8,107.2c0-1.8-1.3-2.9-2.8-2.9c-1.4,0-2.6,1.1-2.6,2.8v0
		c0,1.7,1.2,2.9,2.6,2.9C177.4,110.1,178.8,108.9,178.8,107.2"/>
	<path class="st3" d="M181.2,113.3c2.2-1.6,3.4-3.5,3.4-6.2s-1.2-4.6-3.4-6.2l0.5-0.8c2.6,1.6,4,4,4,7s-1.4,5.4-4,7L181.2,113.3z"/>
	<rect x="191.1" y="100.4" class="st3" width="1.1" height="11.5"/>
	<path class="st3" d="M194.4,103.4h1.1v1.5c0.5-0.9,1.3-1.7,2.6-1.7c1.8,0,2.9,1.4,2.9,3.4v5.3h-1.1v-4.9c0-1.6-0.8-2.6-2.1-2.6
		c-1.3,0-2.3,1.1-2.3,2.6v4.8h-1.1V103.4z"/>
	<path class="st3" d="M202.6,99.9h1.1v5c0.5-0.9,1.3-1.7,2.6-1.7c1.8,0,2.9,1.4,2.9,3.4v5.3h-1.1v-4.9c0-1.6-0.8-2.6-2.1-2.6
		c-1.3,0-2.3,1.1-2.3,2.7v4.8h-1.1V99.9z"/>
	<path class="st3" d="M210.3,109.4L210.3,109.4c0-1.8,1.3-2.8,3.2-2.8c1,0,1.6,0.1,2.3,0.4v-0.3c0-1.5-0.8-2.3-2.2-2.3
		c-0.9,0-1.6,0.3-2.3,0.6l-0.3-1c0.8-0.4,1.6-0.7,2.7-0.7c1.1,0,1.9,0.3,2.4,0.9c0.5,0.6,0.8,1.4,0.8,2.5v5.2h-1.1v-1.3
		c-0.5,0.8-1.4,1.5-2.7,1.5C211.7,112,210.3,111.1,210.3,109.4 M215.8,108.7v-0.8c-0.6-0.2-1.3-0.4-2.2-0.4c-1.4,0-2.2,0.7-2.2,1.8
		v0c0,1.1,0.9,1.7,1.9,1.7C214.7,111,215.8,110.1,215.8,108.7"/>
	<rect x="218.6" y="99.9" class="st3" width="1.1" height="11.9"/>
	<path class="st3" d="M221.1,109.4L221.1,109.4c0-1.8,1.3-2.8,3.2-2.8c1,0,1.6,0.1,2.3,0.4v-0.3c0-1.5-0.8-2.3-2.2-2.3
		c-0.9,0-1.6,0.3-2.3,0.6l-0.3-1c0.8-0.4,1.6-0.7,2.7-0.7c1.1,0,1.9,0.3,2.4,0.9c0.5,0.6,0.8,1.4,0.8,2.5v5.2h-1.1v-1.3
		c-0.5,0.8-1.4,1.5-2.7,1.5C222.5,112,221.1,111.1,221.1,109.4 M226.6,108.7v-0.8c-0.6-0.2-1.3-0.4-2.2-0.4c-1.4,0-2.2,0.7-2.2,1.8
		v0c0,1.1,0.9,1.7,1.9,1.7C225.5,111,226.6,110.1,226.6,108.7"/>
	<path class="st3" d="M229.6,109.6v-5.1h-1v-1.1h1v-2.6h1.1v2.6h2.4v1.1h-2.4v4.9c0,1,0.5,1.4,1.3,1.4c0.4,0,0.7-0.1,1.1-0.3v1.1
		c-0.4,0.2-0.8,0.4-1.4,0.4C230.6,112,229.6,111.3,229.6,109.6"/>
	<path class="st3" d="M234.4,100.1h1.3v1.4h-1.3V100.1z M234.5,103.4h1.1v8.5h-1.1V103.4z"/>
	<path class="st3" d="M237,107.6L237,107.6c0-2.4,1.7-4.4,3.9-4.4c2.3,0,3.9,2,3.9,4.4v0c0,2.4-1.7,4.4-3.9,4.4
		C238.7,112,237,110,237,107.6 M243.7,107.6L243.7,107.6c0-1.8-1.2-3.3-2.8-3.3c-1.6,0-2.8,1.5-2.8,3.3v0c0,1.8,1.2,3.3,2.8,3.3
		C242.6,110.9,243.7,109.4,243.7,107.6"/>
	<path class="st3" d="M246.2,103.4h1.1v1.5c0.5-0.9,1.3-1.7,2.6-1.7c1.8,0,2.9,1.4,2.9,3.4v5.3h-1.1v-4.9c0-1.6-0.8-2.6-2.1-2.6
		c-1.3,0-2.3,1.1-2.3,2.6v4.8h-1.1V103.4z"/>
	<path class="st3" d="M262,100.3h1.1l4.6,11.5h-1.2l-1.2-3h-5.5l-1.2,3h-1.2L262,100.3z M264.8,107.6l-2.3-5.8l-2.3,5.8H264.8z"/>
	<path class="st3" d="M268,107.6L268,107.6c0-2.5,1.5-4.4,3.6-4.4c2.2,0,3.5,2,3.5,4.5c0,0.2,0,0.3,0,0.4h-6
		c0.2,1.8,1.3,2.9,2.6,2.9c1,0,1.8-0.5,2.4-1.2l0.7,0.7c-0.8,0.9-1.7,1.6-3.1,1.6C269.7,112,268,110.2,268,107.6 M274,107.1
		c-0.1-1.5-0.9-2.9-2.4-2.9c-1.3,0-2.3,1.2-2.4,2.9H274z"/>
	<path class="st3" d="M276.3,103.4h1.1v2.2c0.6-1.4,1.6-2.4,3.1-2.4v1.4h-0.1c-1.6,0-3,1.3-3,3.9v3.4h-1.1V103.4z"/>
	<path class="st3" d="M280.7,107.6L280.7,107.6c0-2.4,1.7-4.4,3.9-4.4c2.3,0,3.9,2,3.9,4.4v0c0,2.4-1.7,4.4-3.9,4.4
		C282.4,112,280.7,110,280.7,107.6 M287.4,107.6L287.4,107.6c0-1.8-1.2-3.3-2.8-3.3c-1.6,0-2.8,1.5-2.8,3.3v0c0,1.8,1.2,3.3,2.8,3.3
		C286.3,110.9,287.4,109.4,287.4,107.6"/>
	<path class="st3" d="M289.2,110.7l0.6-0.9c0.8,0.7,1.7,1.1,2.6,1.1c0.9,0,1.6-0.5,1.6-1.3v0c0-0.9-0.9-1.2-1.9-1.5
		c-1.2-0.4-2.5-0.8-2.5-2.4v0c0-1.5,1.1-2.4,2.6-2.4c0.9,0,1.9,0.4,2.7,0.9l-0.5,0.9c-0.7-0.5-1.5-0.8-2.2-0.8
		c-0.9,0-1.5,0.5-1.5,1.2v0c0,0.8,0.9,1.1,1.9,1.5c1.2,0.4,2.4,0.9,2.4,2.4v0c0,1.6-1.2,2.5-2.7,2.5
		C291.3,112,290.1,111.5,289.2,110.7"/>
	<path class="st3" d="M295.9,107.6L295.9,107.6c0-2.4,1.7-4.4,3.9-4.4c2.3,0,3.9,2,3.9,4.4v0c0,2.4-1.7,4.4-3.9,4.4
		C297.6,112,295.9,110,295.9,107.6 M302.6,107.6L302.6,107.6c0-1.8-1.2-3.3-2.8-3.3c-1.6,0-2.8,1.5-2.8,3.3v0c0,1.8,1.2,3.3,2.8,3.3
		C301.5,110.9,302.6,109.4,302.6,107.6"/>
	<rect x="305.1" y="99.9" class="st3" width="1.1" height="11.9"/>
</g>
</svg>
